<?xml version="1.0" encoding="UTF-8" standalone="no"?>
<!-- Created with Inkscape (http://www.inkscape.org/) -->

<svg
   xmlns:dc="http://purl.org/dc/elements/1.1/"
   xmlns:cc="http://creativecommons.org/ns#"
   xmlns:rdf="http://www.w3.org/1999/02/22-rdf-syntax-ns#"
   xmlns:svg="http://www.w3.org/2000/svg"
   xmlns="http://www.w3.org/2000/svg"
   xmlns:sodipodi="http://sodipodi.sourceforge.net/DTD/sodipodi-0.dtd"
   xmlns:inkscape="http://www.inkscape.org/namespaces/inkscape"
   width="1052.3622"
   height="744.09448"
   id="svg2"
   version="1.1"
   inkscape:version="0.48.1 r9760"
   sodipodi:docname="solar_system_map.pdf">
  <defs
     id="defs4" />
  <sodipodi:namedview
     id="base"
     pagecolor="#ffffff"
     bordercolor="#666666"
     borderopacity="1.0"
     inkscape:pageopacity="0.0"
     inkscape:pageshadow="2"
     inkscape:zoom="0.98994949"
     inkscape:cx="611.24197"
     inkscape:cy="413.30841"
     inkscape:document-units="px"
     inkscape:current-layer="layer1"
     showgrid="false"
     inkscape:window-width="1600"
     inkscape:window-height="1110"
     inkscape:window-x="0"
     inkscape:window-y="49"
     inkscape:window-maximized="1" />
  <metadata
     id="metadata7">
    <rdf:RDF>
      <cc:Work
         rdf:about="">
        <dc:format>image/svg+xml</dc:format>
        <dc:type
           rdf:resource="http://purl.org/dc/dcmitype/StillImage" />
        <dc:title></dc:title>
      </cc:Work>
    </rdf:RDF>
  </metadata>
  <g
     inkscape:label="Layer 1"
     inkscape:groupmode="layer"
     id="layer1"
     transform="translate(0,-308.2677)">
    <path
       sodipodi:type="arc"
       style="fill:#ffe680;stroke:#000000"
       id="path2985"
       sodipodi:cx="526.28949"
       sodipodi:cy="369.32788"
       sodipodi:rx="54.548237"
       sodipodi:ry="52.527931"
       d="m 580.83773,369.32788 a 54.548237,52.527931 0 1 1 -109.09648,0 54.548237,52.527931 0 1 1 109.09648,0 z"
       transform="matrix(1.119927,0,0,1.4333829,-70.192439,73.147646)" />
    <path
       sodipodi:type="arc"
       style="fill:none;stroke:#000000"
       id="path2989"
       sodipodi:cx="530.33008"
       sodipodi:cy="370.84311"
       sodipodi:rx="189.90868"
       sodipodi:ry="125.76399"
       d="m 720.23875,370.84311 a 189.90868,125.76399 0 1 1 -379.81735,0 189.90868,125.76399 0 1 1 379.81735,0 z"
       transform="matrix(1.119927,0,0,1.0008614,-75.186227,240.05111)" />
    <path
       sodipodi:type="arc"
       style="fill:none;stroke:#000000"
       id="path2989-7"
       sodipodi:cx="530.33008"
       sodipodi:cy="370.84311"
       sodipodi:rx="189.90868"
       sodipodi:ry="125.76399"
       d="m 720.23875,370.84311 a 189.90868,125.76399 0 1 1 -379.81735,0 189.90868,125.76399 0 1 1 379.81735,0 z"
       transform="matrix(1.5536701,0,0,1.5282958,-306.34452,58.242256)" />
    <path
       sodipodi:type="arc"
       style="fill:none;stroke:#000000"
       id="path2989-7-6"
       sodipodi:cx="530.33008"
       sodipodi:cy="370.84311"
       sodipodi:rx="189.90868"
       sodipodi:ry="125.76399"
       d="m 720.23875,370.84311 a 189.90868,125.76399 0 1 1 -379.81735,0 189.90868,125.76399 0 1 1 379.81735,0 z"
       transform="matrix(2.1420877,0,0,2.0841092,-619.53142,-126.88228)" />
    <path
       sodipodi:type="arc"
       style="fill:none;stroke:#000000"
       id="path2989-7-4"
       sodipodi:cx="530.33008"
       sodipodi:cy="370.84311"
       sodipodi:rx="189.90868"
       sodipodi:ry="125.76399"
       d="m 720.23875,370.84311 a 189.90868,125.76399 0 1 1 -379.81735,0 189.90868,125.76399 0 1 1 379.81735,0 z"
       transform="matrix(2.6589639,0,0,2.7607004,-894.77763,-338.69716)" />
    <path
       sodipodi:type="arc"
       style="fill:#000000;stroke:#000000"
       id="path3034"
       sodipodi:cx="526.79456"
       sodipodi:cy="294.5766"
       sodipodi:rx="4.5456862"
       sodipodi:ry="5.0507627"
       d="m 531.34024,294.5766 a 4.5456862,5.0507627 0 1 1 -9.09137,0 4.5456862,5.0507627 0 1 1 9.09137,0 z"
       transform="matrix(1.119927,0,0,1.4333829,-71.792336,63.757383)" />
    <path
       sodipodi:type="arc"
       style="fill:#000000;stroke:#000000"
       id="path3034-3"
       sodipodi:cx="526.79456"
       sodipodi:cy="294.5766"
       sodipodi:rx="4.5456862"
       sodipodi:ry="5.0507627"
       d="m 531.34024,294.5766 a 4.5456862,5.0507627 0 1 1 -9.09137,0 4.5456862,5.0507627 0 1 1 9.09137,0 z"
       transform="matrix(1.119927,0,0,1.4333829,-71.22669,11.631696)" />
    <path
       sodipodi:type="arc"
       style="fill:#000000;stroke:#000000"
       id="path3034-8"
       sodipodi:cx="526.79456"
       sodipodi:cy="294.5766"
       sodipodi:rx="4.5456862"
       sodipodi:ry="5.0507627"
       d="m 531.34024,294.5766 a 4.5456862,5.0507627 0 1 1 -9.09137,0 4.5456862,5.0507627 0 1 1 9.09137,0 z"
       transform="matrix(1.119927,0,0,1.4333829,-72.357988,-37.598092)" />
    <a
       id="a3068"
       transform="matrix(1.119927,0,0,1.4333829,-71.792336,-381.00415)">
      <path
         transform="translate(-1.5152321,207.25244)"
         d="m 531.34024,294.5766 c 0,2.78946 -2.03517,5.05076 -4.54568,5.05076 -2.51052,0 -4.54569,-2.2613 -4.54569,-5.05076 0,-2.78946 2.03517,-5.05076 4.54569,-5.05076 2.51051,0 4.54568,2.2613 4.54568,5.05076 z"
         sodipodi:ry="5.0507627"
         sodipodi:rx="4.5456862"
         sodipodi:cy="294.5766"
         sodipodi:cx="526.79456"
         id="path3034-0"
         style="fill:#000000;stroke:#000000"
         sodipodi:type="arc" />
    </a>
    <path
       sodipodi:type="arc"
       style="fill:#000000;stroke:#000000"
       id="path3034-06"
       sodipodi:cx="526.79456"
       sodipodi:cy="294.5766"
       sodipodi:rx="4.5456862"
       sodipodi:ry="5.0507627"
       d="m 531.34024,294.5766 a 4.5456862,5.0507627 0 1 1 -9.09137,0 4.5456862,5.0507627 0 1 1 9.09137,0 z"
       transform="matrix(1.119927,0,0,1.4333829,-72.923639,609.62903)" />
    <path
       sodipodi:type="arc"
       style="fill:#000000;stroke:#000000"
       id="path3034-3-4"
       sodipodi:cx="526.79456"
       sodipodi:cy="294.5766"
       sodipodi:rx="4.5456862"
       sodipodi:ry="5.0507627"
       d="m 531.34024,294.5766 a 4.5456862,5.0507627 0 1 1 -9.09137,0 4.5456862,5.0507627 0 1 1 9.09137,0 z"
       transform="matrix(1.119927,0,0,1.4333829,-73.489285,488.00243)" />
    <path
       sodipodi:type="arc"
       style="fill:#000000;stroke:#000000"
       id="path3034-8-6"
       sodipodi:cx="526.79456"
       sodipodi:cy="294.5766"
       sodipodi:rx="4.5456862"
       sodipodi:ry="5.0507627"
       d="m 531.34024,294.5766 a 4.5456862,5.0507627 0 1 1 -9.09137,0 4.5456862,5.0507627 0 1 1 9.09137,0 z"
       transform="matrix(1.119927,0,0,1.4333829,-73.489292,397.5065)" />
    <a
       transform="matrix(1.119927,0,0,1.4333829,-72.923639,20.073949)"
       id="a3068-2">
      <path
         transform="translate(-1.5152321,207.25244)"
         d="m 531.34024,294.5766 c 0,2.78946 -2.03517,5.05076 -4.54568,5.05076 -2.51052,0 -4.54569,-2.2613 -4.54569,-5.05076 0,-2.78946 2.03517,-5.05076 4.54569,-5.05076 2.51051,0 4.54568,2.2613 4.54568,5.05076 z"
         sodipodi:ry="5.0507627"
         sodipodi:rx="4.5456862"
         sodipodi:cy="294.5766"
         sodipodi:cx="526.79456"
         id="path3034-0-5"
         style="fill:#000000;stroke:#000000"
         sodipodi:type="arc" />
    </a>
    <path
       sodipodi:type="arc"
       style="fill:#000000;stroke:#000000"
       id="path3034-08"
       sodipodi:cx="526.79456"
       sodipodi:cy="294.5766"
       sodipodi:rx="4.5456862"
       sodipodi:ry="5.0507627"
       d="m 531.34024,294.5766 a 4.5456862,5.0507627 0 1 1 -9.09137,0 4.5456862,5.0507627 0 1 1 9.09137,0 z"
       transform="matrix(1.119927,0,0,1.4333829,139.19459,179.59221)" />
    <path
       sodipodi:type="arc"
       style="fill:#000000;stroke:#000000"
       id="path3034-1"
       sodipodi:cx="526.79456"
       sodipodi:cy="294.5766"
       sodipodi:rx="4.5456862"
       sodipodi:ry="5.0507627"
       d="m 531.34024,294.5766 a 4.5456862,5.0507627 0 1 1 -9.09137,0 4.5456862,5.0507627 0 1 1 9.09137,0 z"
       transform="matrix(1.119927,0,0,1.4333829,221.77928,195.5195)" />
    <path
       sodipodi:type="arc"
       style="fill:#000000;stroke:#000000"
       id="path3034-31"
       sodipodi:cx="526.79456"
       sodipodi:cy="294.5766"
       sodipodi:rx="4.5456862"
       sodipodi:ry="5.0507627"
       d="m 531.34024,294.5766 a 4.5456862,5.0507627 0 1 1 -9.09137,0 4.5456862,5.0507627 0 1 1 9.09137,0 z"
       transform="matrix(1.119927,0,0,1.4333829,331.5151,211.44679)" />
    <path
       sodipodi:type="arc"
       style="fill:#000000;stroke:#000000"
       id="path3034-10"
       sodipodi:cx="526.79456"
       sodipodi:cy="294.5766"
       sodipodi:rx="4.5456862"
       sodipodi:ry="5.0507627"
       d="m 531.34024,294.5766 a 4.5456862,5.0507627 0 1 1 -9.09137,0 4.5456862,5.0507627 0 1 1 9.09137,0 z"
       transform="matrix(1.119927,0,0,1.4333829,427.67536,233.16582)" />
    <text
       xml:space="preserve"
       style="font-size:12.669981px;font-style:normal;font-weight:normal;line-height:125%;letter-spacing:0px;word-spacing:0px;fill:#000000;fill-opacity:1;stroke:none;font-family:Bitstream Vera Sans"
       x="829.58862"
       y="521.21777"
       id="text3140"
       sodipodi:linespacing="125%"
       transform="scale(0.88392164,1.131322)"><tspan
         sodipodi:role="line"
         id="tspan3142"
         x="829.58862"
         y="521.21777">0,0</tspan></text>
    <text
       xml:space="preserve"
       style="font-size:12.669981px;font-style:normal;font-weight:normal;line-height:125%;letter-spacing:0px;word-spacing:0px;fill:#000000;fill-opacity:1;stroke:none;font-family:Bitstream Vera Sans"
       x="928.30573"
       y="539.53876"
       id="text3144"
       sodipodi:linespacing="125%"
       transform="scale(0.88392164,1.131322)"><tspan
         sodipodi:role="line"
         id="tspan3146"
         x="928.30573"
         y="539.53876">1,0</tspan></text>
    <text
       xml:space="preserve"
       style="font-size:12.669981px;font-style:normal;font-weight:normal;line-height:125%;letter-spacing:0px;word-spacing:0px;fill:#000000;fill-opacity:1;stroke:none;font-family:Bitstream Vera Sans"
       x="1055.0055"
       y="556.28131"
       id="text3148"
       sodipodi:linespacing="125%"
       transform="scale(0.88392164,1.131322)"><tspan
         sodipodi:role="line"
         id="tspan3150"
         x="1055.0055"
         y="556.28131">2,0</tspan></text>
    <text
       xml:space="preserve"
       style="font-size:12.669981px;font-style:normal;font-weight:normal;line-height:125%;letter-spacing:0px;word-spacing:0px;fill:#000000;fill-opacity:1;stroke:none;font-family:Bitstream Vera Sans"
       x="1158.6279"
       y="572.22858"
       id="text3152"
       sodipodi:linespacing="125%"
       transform="scale(0.88392164,1.131322)"><tspan
         sodipodi:role="line"
         id="tspan3154"
         x="1158.6279"
         y="572.22858">3,0</tspan></text>
    <text
       xml:space="preserve"
       style="font-size:12.669981px;font-style:normal;font-weight:normal;line-height:125%;letter-spacing:0px;word-spacing:0px;fill:#000000;fill-opacity:1;stroke:none;font-family:Bitstream Vera Sans"
       x="590.74121"
       y="638.63617"
       id="text3156"
       sodipodi:linespacing="125%"
       transform="scale(0.88392164,1.131322)"><tspan
         sodipodi:role="line"
         id="tspan3158"
         x="590.74121"
         y="638.63617">0,90</tspan></text>
    <text
       xml:space="preserve"
       style="font-size:12.669981px;font-style:normal;font-weight:normal;line-height:125%;letter-spacing:0px;word-spacing:0px;fill:#000000;fill-opacity:1;stroke:none;font-family:Bitstream Vera Sans"
       x="591.64624"
       y="711.03607"
       id="text3160"
       sodipodi:linespacing="125%"
       transform="scale(0.88392164,1.131322)"><tspan
         sodipodi:role="line"
         id="tspan3162"
         x="591.64624"
         y="711.03607">1,90</tspan></text>
    <text
       xml:space="preserve"
       style="font-size:12.669981px;font-style:normal;font-weight:normal;line-height:125%;letter-spacing:0px;word-spacing:0px;fill:#000000;fill-opacity:1;stroke:none;font-family:Bitstream Vera Sans"
       x="591.72394"
       y="792.7832"
       id="text3164"
       sodipodi:linespacing="125%"
       transform="scale(0.88392164,1.131322)"><tspan
         sodipodi:role="line"
         id="tspan3166"
         x="591.72394"
         y="792.7832">2,90</tspan></text>
    <text
       xml:space="preserve"
       style="font-size:12.669981px;font-style:normal;font-weight:normal;line-height:125%;letter-spacing:0px;word-spacing:0px;fill:#000000;fill-opacity:1;stroke:none;font-family:Bitstream Vera Sans"
       x="592.55121"
       y="903.34827"
       id="text3168"
       sodipodi:linespacing="125%"
       transform="scale(0.88392164,1.131322)"><tspan
         sodipodi:role="line"
         id="tspan3170"
         x="592.55121"
         y="903.34827">3,90</tspan></text>
    <a
       transform="matrix(1.119927,0,0,1.4333829,-282.21361,-116.03196)"
       id="a3068-2-6">
      <path
         transform="translate(-1.5152321,207.25244)"
         d="m 531.34024,294.5766 c 0,2.78946 -2.03517,5.05076 -4.54568,5.05076 -2.51052,0 -4.54569,-2.2613 -4.54569,-5.05076 0,-2.78946 2.03517,-5.05076 4.54569,-5.05076 2.51051,0 4.54568,2.2613 4.54568,5.05076 z"
         sodipodi:ry="5.0507627"
         sodipodi:rx="4.5456862"
         sodipodi:cy="294.5766"
         sodipodi:cx="526.79456"
         id="path3034-0-5-1"
         style="fill:#000000;stroke:#000000"
         sodipodi:type="arc" />
    </a>
    <a
       transform="matrix(1.119927,0,0,1.4333829,-365.9296,-97.208803)"
       id="a3068-2-5">
      <path
         transform="translate(-1.5152321,207.25244)"
         d="m 531.34024,294.5766 c 0,2.78946 -2.03517,5.05076 -4.54568,5.05076 -2.51052,0 -4.54569,-2.2613 -4.54569,-5.05076 0,-2.78946 2.03517,-5.05076 4.54569,-5.05076 2.51051,0 4.54568,2.2613 4.54568,5.05076 z"
         sodipodi:ry="5.0507627"
         sodipodi:rx="4.5456862"
         sodipodi:cy="294.5766"
         sodipodi:cx="526.79456"
         id="path3034-0-5-9"
         style="fill:#000000;stroke:#000000"
         sodipodi:type="arc" />
    </a>
    <a
       transform="matrix(1.119927,0,0,1.4333829,-479.05931,-71.14596)"
       id="a3068-2-9">
      <path
         transform="translate(-1.5152321,207.25244)"
         d="m 531.34024,294.5766 c 0,2.78946 -2.03517,5.05076 -4.54568,5.05076 -2.51052,0 -4.54569,-2.2613 -4.54569,-5.05076 0,-2.78946 2.03517,-5.05076 4.54569,-5.05076 2.51051,0 4.54568,2.2613 4.54568,5.05076 z"
         sodipodi:ry="5.0507627"
         sodipodi:rx="4.5456862"
         sodipodi:cy="294.5766"
         sodipodi:cx="526.79456"
         id="path3034-0-5-14"
         style="fill:#000000;stroke:#000000"
         sodipodi:type="arc" />
    </a>
    <a
       transform="matrix(1.119927,0,0,1.4333829,-577.48217,-47.979009)"
       id="a3068-2-91">
      <path
         transform="translate(-1.5152321,207.25244)"
         d="m 531.34024,294.5766 c 0,2.78946 -2.03517,5.05076 -4.54568,5.05076 -2.51052,0 -4.54569,-2.2613 -4.54569,-5.05076 0,-2.78946 2.03517,-5.05076 4.54569,-5.05076 2.51051,0 4.54568,2.2613 4.54568,5.05076 z"
         sodipodi:ry="5.0507627"
         sodipodi:rx="4.5456862"
         sodipodi:cy="294.5766"
         sodipodi:cx="526.79456"
         id="path3034-0-5-0"
         style="fill:#000000;stroke:#000000"
         sodipodi:type="arc" />
    </a>
    <text
       xml:space="preserve"
       style="font-size:12.669981px;font-style:normal;font-weight:normal;line-height:125%;letter-spacing:0px;word-spacing:0px;fill:#000000;fill-opacity:1;stroke:none;font-family:Bitstream Vera Sans"
       x="359.05209"
       y="528.7738"
       id="text3220"
       sodipodi:linespacing="125%"
       transform="scale(0.88392164,1.131322)"><tspan
         sodipodi:role="line"
         id="tspan3222"
         x="359.05209"
         y="528.7738">0,180</tspan></text>
    <text
       xml:space="preserve"
       style="font-size:12.669981px;font-style:normal;font-weight:normal;line-height:125%;letter-spacing:0px;word-spacing:0px;fill:#000000;fill-opacity:1;stroke:none;font-family:Bitstream Vera Sans"
       x="258.58295"
       y="540.93243"
       id="text3224"
       sodipodi:linespacing="125%"
       transform="scale(0.88392164,1.131322)"><tspan
         sodipodi:role="line"
         id="tspan3226"
         x="258.58295"
         y="540.93243">1,180</tspan></text>
    <text
       xml:space="preserve"
       style="font-size:12.669981px;font-style:normal;font-weight:normal;line-height:125%;letter-spacing:0px;word-spacing:0px;fill:#000000;fill-opacity:1;stroke:none;font-family:Bitstream Vera Sans"
       x="132.51662"
       y="563.33002"
       id="text3228"
       sodipodi:linespacing="125%"
       transform="scale(0.88392164,1.131322)"><tspan
         sodipodi:role="line"
         id="tspan3230"
         x="132.51662"
         y="563.33002">2,180</tspan></text>
    <text
       xml:space="preserve"
       style="font-size:12.669981px;font-style:normal;font-weight:normal;line-height:125%;letter-spacing:0px;word-spacing:0px;fill:#000000;fill-opacity:1;stroke:none;font-family:Bitstream Vera Sans"
       x="18.60894"
       y="584.44769"
       id="text3232"
       sodipodi:linespacing="125%"
       transform="scale(0.88392164,1.131322)"><tspan
         sodipodi:role="line"
         id="tspan3234"
         x="18.60894"
         y="584.44769">3,180</tspan></text>
    <text
       xml:space="preserve"
       style="font-size:12.669981px;font-style:normal;font-weight:normal;line-height:125%;letter-spacing:0px;word-spacing:0px;fill:#000000;fill-opacity:1;stroke:none;font-family:Bitstream Vera Sans"
       x="592.5813"
       y="422.655"
       id="text3236"
       sodipodi:linespacing="125%"
       transform="scale(0.88392164,1.131322)"><tspan
         sodipodi:role="line"
         id="tspan3238"
         x="592.5813"
         y="422.655">0,270</tspan></text>
    <text
       xml:space="preserve"
       style="font-size:12.669981px;font-style:normal;font-weight:normal;line-height:125%;letter-spacing:0px;word-spacing:0px;fill:#000000;fill-opacity:1;stroke:none;font-family:Bitstream Vera Sans"
       x="590.66156"
       y="371.94531"
       id="text3240"
       sodipodi:linespacing="125%"
       transform="scale(0.88392164,1.131322)"><tspan
         sodipodi:role="line"
         id="tspan3242"
         x="590.66156"
         y="371.94531">1,270</tspan></text>
    <text
       xml:space="preserve"
       style="font-size:12.669981px;font-style:normal;font-weight:normal;line-height:125%;letter-spacing:0px;word-spacing:0px;fill:#000000;fill-opacity:1;stroke:none;font-family:Bitstream Vera Sans"
       x="507.64325"
       y="451.09711"
       id="text3244"
       sodipodi:linespacing="125%"
       transform="matrix(0.86332801,-0.24278205,0.18968984,1.1049644,0,0)"><tspan
         sodipodi:role="line"
         id="tspan3246"
         x="507.64325"
         y="451.09711">2,270</tspan></text>
    <text
       xml:space="preserve"
       style="font-size:12.669981px;font-style:normal;font-weight:normal;line-height:125%;letter-spacing:0px;word-spacing:0px;fill:#000000;fill-opacity:1;stroke:none;font-family:Bitstream Vera Sans"
       x="595.82648"
       y="290.07965"
       id="text3248"
       sodipodi:linespacing="125%"
       transform="scale(0.88392164,1.131322)"><tspan
         sodipodi:role="line"
         id="tspan3250"
         x="595.82648"
         y="290.07965">3,270</tspan></text>
    <a
       transform="matrix(1.119927,0,0,1.4333829,-258.45637,54.100438)"
       id="a3068-2-6-5">
      <path
         transform="translate(-1.5152321,207.25244)"
         d="m 531.34024,294.5766 c 0,2.78946 -2.03517,5.05076 -4.54568,5.05076 -2.51052,0 -4.54569,-2.2613 -4.54569,-5.05076 0,-2.78946 2.03517,-5.05076 4.54569,-5.05076 2.51051,0 4.54568,2.2613 4.54568,5.05076 z"
         sodipodi:ry="5.0507627"
         sodipodi:rx="4.5456862"
         sodipodi:cy="294.5766"
         sodipodi:cx="526.79456"
         id="path3034-0-5-1-4"
         style="fill:#000000;stroke:#000000"
         sodipodi:type="arc" />
    </a>
    <a
       transform="matrix(1.119927,0,0,1.4333829,135.23504,43.964887)"
       id="a3068-2-6-9">
      <path
         transform="translate(-1.5152321,207.25244)"
         d="m 531.34024,294.5766 c 0,2.78946 -2.03517,5.05076 -4.54568,5.05076 -2.51052,0 -4.54569,-2.2613 -4.54569,-5.05076 0,-2.78946 2.03517,-5.05076 4.54569,-5.05076 2.51051,0 4.54568,2.2613 4.54568,5.05076 z"
         sodipodi:ry="5.0507627"
         sodipodi:rx="4.5456862"
         sodipodi:cy="294.5766"
         sodipodi:cx="526.79456"
         id="path3034-0-5-1-9"
         style="fill:#000000;stroke:#000000"
         sodipodi:type="arc" />
    </a>
    <a
       transform="matrix(1.119927,0,0,1.4333829,-252.79989,-244.8982)"
       id="a3068-2-6-3">
      <path
         transform="translate(-1.5152321,207.25244)"
         d="m 531.34024,294.5766 c 0,2.78946 -2.03517,5.05076 -4.54568,5.05076 -2.51052,0 -4.54569,-2.2613 -4.54569,-5.05076 0,-2.78946 2.03517,-5.05076 4.54569,-5.05076 2.51051,0 4.54568,2.2613 4.54568,5.05076 z"
         sodipodi:ry="5.0507627"
         sodipodi:rx="4.5456862"
         sodipodi:cy="294.5766"
         sodipodi:cx="526.79456"
         id="path3034-0-5-1-6"
         style="fill:#000000;stroke:#000000"
         sodipodi:type="arc" />
    </a>
    <a
       transform="matrix(1.119927,0,0,1.4333829,112.04346,-244.8982)"
       id="a3068-2-6-2">
      <path
         transform="translate(-1.5152321,207.25244)"
         d="m 531.34024,294.5766 c 0,2.78946 -2.03517,5.05076 -4.54568,5.05076 -2.51052,0 -4.54569,-2.2613 -4.54569,-5.05076 0,-2.78946 2.03517,-5.05076 4.54569,-5.05076 2.51051,0 4.54568,2.2613 4.54568,5.05076 z"
         sodipodi:ry="5.0507627"
         sodipodi:rx="4.5456862"
         sodipodi:cy="294.5766"
         sodipodi:cx="526.79456"
         id="path3034-0-5-1-94"
         style="fill:#000000;stroke:#000000"
         sodipodi:type="arc" />
    </a>
    <text
       xml:space="preserve"
       style="font-size:12.669981px;font-style:normal;font-weight:normal;line-height:125%;letter-spacing:0px;word-spacing:0px;fill:#000000;fill-opacity:1;stroke:none;font-family:Bitstream Vera Sans"
       x="787.80554"
       y="666.35889"
       id="text3300"
       sodipodi:linespacing="125%"
       transform="scale(0.88392164,1.131322)"><tspan
         sodipodi:role="line"
         id="tspan3302"
         x="787.80554"
         y="666.35889">1,45</tspan></text>
    <text
       xml:space="preserve"
       style="font-size:12.669981px;font-style:normal;font-weight:normal;line-height:125%;letter-spacing:0px;word-spacing:0px;fill:#000000;fill-opacity:1;stroke:none;font-family:Bitstream Vera Sans"
       x="378.24994"
       y="674.03802"
       id="text3304"
       sodipodi:linespacing="125%"
       transform="scale(0.88392164,1.131322)"><tspan
         sodipodi:role="line"
         id="tspan3306"
         x="378.24994"
         y="674.03802">1,135</tspan></text>
    <text
       xml:space="preserve"
       style="font-size:12.669981px;font-style:normal;font-weight:normal;line-height:125%;letter-spacing:0px;word-spacing:0px;fill:#000000;fill-opacity:1;stroke:none;font-family:Bitstream Vera Sans"
       x="354.57254"
       y="409.10669"
       id="text3308"
       sodipodi:linespacing="125%"
       transform="scale(0.88392164,1.131322)"><tspan
         sodipodi:role="line"
         id="tspan3310"
         x="354.57254"
         y="409.10669">1,225</tspan></text>
    <text
       xml:space="preserve"
       style="font-size:12.669981px;font-style:normal;font-weight:normal;line-height:125%;letter-spacing:0px;word-spacing:0px;fill:#000000;fill-opacity:1;stroke:none;font-family:Bitstream Vera Sans"
       x="802.52393"
       y="419.34558"
       id="text3312"
       sodipodi:linespacing="125%"
       transform="scale(0.88392164,1.131322)"><tspan
         sodipodi:role="line"
         id="tspan3314"
         x="802.52393"
         y="419.34558">1,315</tspan></text>
    <path
       style="fill:none;stroke:#000000;stroke-width:1.26699817px;stroke-linecap:butt;stroke-linejoin:miter;stroke-opacity:1"
       d="m 515.91655,1032.594 0,-294.65479"
       id="path3322"
       inkscape:connector-curvature="0" />
    <path
       style="fill:none;stroke:#000000;stroke-width:1.26699817px;stroke-linecap:butt;stroke-linejoin:miter;stroke-opacity:1"
       d="m 518.74479,486.72241 0,-151.30925"
       id="path3324"
       inkscape:connector-curvature="0" />
    <path
       style="fill:none;stroke:#000000;stroke-width:1.26699817px;stroke-linecap:butt;stroke-linejoin:miter;stroke-opacity:1"
       d="M 306.06092,604.72914 7.3984661,672.05815"
       id="path3326"
       inkscape:connector-curvature="0" />
    <path
       style="fill:none;stroke:#000000;stroke-width:1.26699817px;stroke-linecap:butt;stroke-linejoin:miter;stroke-opacity:1"
       d="m 726.33782,598.9374 290.74338,57.19345"
       id="path3328"
       inkscape:connector-curvature="0" />
    <path
       style="fill:none;stroke:#000000;stroke-width:1.26699817px;stroke-linecap:butt;stroke-linejoin:miter;stroke-opacity:1"
       d="m 515.3509,740.83507 209.28997,23.16696 6.78779,-161.4448 L 700.31798,473.69099 515.91655,485.27448 334.909,474.41495 304.36397,602.55723 330.94946,776.30949 z"
       id="path3332"
       inkscape:connector-curvature="0" />
    <a
       transform="matrix(1.119927,0,0,1.4333829,271.91954,-213.76483)"
       id="a3068-2-6-51">
      <path
         transform="translate(-1.5152321,207.25244)"
         d="m 531.34024,294.5766 c 0,2.78946 -2.03517,5.05076 -4.54568,5.05076 -2.51052,0 -4.54569,-2.2613 -4.54569,-5.05076 0,-2.78946 2.03517,-5.05076 4.54569,-5.05076 2.51051,0 4.54568,2.2613 4.54568,5.05076 z"
         sodipodi:ry="5.0507627"
         sodipodi:rx="4.5456862"
         sodipodi:cy="294.5766"
         sodipodi:cx="526.79456"
         id="path3034-0-5-1-0"
         style="fill:#000000;stroke:#000000"
         sodipodi:type="arc" />
    </a>
    <a
       transform="matrix(1.119927,0,0,1.4333829,41.534539,-324.34009)"
       id="a3068-2-6-37">
      <path
         transform="translate(-1.5152321,207.25244)"
         d="m 531.34024,294.5766 c 0,2.78946 -2.03517,5.05076 -4.54568,5.05076 -2.51052,0 -4.54569,-2.2613 -4.54569,-5.05076 0,-2.78946 2.03517,-5.05076 4.54569,-5.05076 2.51051,0 4.54568,2.2613 4.54568,5.05076 z"
         sodipodi:ry="5.0507627"
         sodipodi:rx="4.5456862"
         sodipodi:cy="294.5766"
         sodipodi:cx="526.79456"
         id="path3034-0-5-1-8"
         style="fill:#000000;stroke:#000000"
         sodipodi:type="arc" />
    </a>
    <a
       transform="matrix(1.119927,0,0,1.4333829,-183.25083,-327.41162)"
       id="a3068-2-6-8">
      <path
         transform="translate(-1.5152321,207.25244)"
         d="m 531.34024,294.5766 c 0,2.78946 -2.03517,5.05076 -4.54568,5.05076 -2.51052,0 -4.54569,-2.2613 -4.54569,-5.05076 0,-2.78946 2.03517,-5.05076 4.54569,-5.05076 2.51051,0 4.54568,2.2613 4.54568,5.05076 z"
         sodipodi:ry="5.0507627"
         sodipodi:rx="4.5456862"
         sodipodi:cy="294.5766"
         sodipodi:cx="526.79456"
         id="path3034-0-5-1-60"
         style="fill:#000000;stroke:#000000"
         sodipodi:type="arc" />
    </a>
    <a
       transform="matrix(1.119927,0,0,1.4333829,-407.23623,-222.97944)"
       id="a3068-2-6-4">
      <path
         transform="translate(-1.5152321,207.25244)"
         d="m 531.34024,294.5766 c 0,2.78946 -2.03517,5.05076 -4.54568,5.05076 -2.51052,0 -4.54569,-2.2613 -4.54569,-5.05076 0,-2.78946 2.03517,-5.05076 4.54569,-5.05076 2.51051,0 4.54568,2.2613 4.54568,5.05076 z"
         sodipodi:ry="5.0507627"
         sodipodi:rx="4.5456862"
         sodipodi:cy="294.5766"
         sodipodi:cx="526.79456"
         id="path3034-0-5-1-67"
         style="fill:#000000;stroke:#000000"
         sodipodi:type="arc" />
    </a>
    <a
       transform="matrix(1.119927,0,0,1.4333829,-428.83481,52.434848)"
       id="a3068-2-6-6">
      <path
         transform="translate(-1.5152321,207.25244)"
         d="m 531.34024,294.5766 c 0,2.78946 -2.03517,5.05076 -4.54568,5.05076 -2.51052,0 -4.54569,-2.2613 -4.54569,-5.05076 0,-2.78946 2.03517,-5.05076 4.54569,-5.05076 2.51051,0 4.54568,2.2613 4.54568,5.05076 z"
         sodipodi:ry="5.0507627"
         sodipodi:rx="4.5456862"
         sodipodi:cy="294.5766"
         sodipodi:cx="526.79456"
         id="path3034-0-5-1-09"
         style="fill:#000000;stroke:#000000"
         sodipodi:type="arc" />
    </a>
    <a
       transform="matrix(1.119927,0,0,1.4333829,-221.64832,171.20087)"
       id="a3068-2-6-7">
      <path
         transform="translate(-1.5152321,207.25244)"
         d="m 531.34024,294.5766 c 0,2.78946 -2.03517,5.05076 -4.54568,5.05076 -2.51052,0 -4.54569,-2.2613 -4.54569,-5.05076 0,-2.78946 2.03517,-5.05076 4.54569,-5.05076 2.51051,0 4.54568,2.2613 4.54568,5.05076 z"
         sodipodi:ry="5.0507627"
         sodipodi:rx="4.5456862"
         sodipodi:cy="294.5766"
         sodipodi:cx="526.79456"
         id="path3034-0-5-1-5"
         style="fill:#000000;stroke:#000000"
         sodipodi:type="arc" />
    </a>
    <a
       transform="matrix(1.119927,0,0,1.4333829,77.532198,170.17702)"
       id="a3068-2-6-97">
      <path
         transform="translate(-1.5152321,207.25244)"
         d="m 531.34024,294.5766 c 0,2.78946 -2.03517,5.05076 -4.54568,5.05076 -2.51052,0 -4.54569,-2.2613 -4.54569,-5.05076 0,-2.78946 2.03517,-5.05076 4.54569,-5.05076 2.51051,0 4.54568,2.2613 4.54568,5.05076 z"
         sodipodi:ry="5.0507627"
         sodipodi:rx="4.5456862"
         sodipodi:cy="294.5766"
         sodipodi:cx="526.79456"
         id="path3034-0-5-1-85"
         style="fill:#000000;stroke:#000000"
         sodipodi:type="arc" />
    </a>
    <a
       transform="matrix(1.119927,0,0,1.4333829,287.11854,51.411011)"
       id="a3068-2-6-33">
      <path
         transform="translate(-1.5152321,207.25244)"
         d="m 531.34024,294.5766 c 0,2.78946 -2.03517,5.05076 -4.54568,5.05076 -2.51052,0 -4.54569,-2.2613 -4.54569,-5.05076 0,-2.78946 2.03517,-5.05076 4.54569,-5.05076 2.51051,0 4.54568,2.2613 4.54568,5.05076 z"
         sodipodi:ry="5.0507627"
         sodipodi:rx="4.5456862"
         sodipodi:cy="294.5766"
         sodipodi:cx="526.79456"
         id="path3034-0-5-1-83"
         style="fill:#000000;stroke:#000000"
         sodipodi:type="arc" />
    </a>
    <path
       style="fill:none;stroke:#000000;stroke-width:1.26699817px;stroke-linecap:butt;stroke-linejoin:miter;stroke-opacity:1"
       d="m 515.41652,817.82105 151.99011,72.69297 56.7963,-129.00446 153.58999,10.23846 L 811.39724,617.14744 860.99402,504.5245 701.80438,474.83299 627.40923,392.9254 518.61631,431.8315 405.82367,391.90155 l -70.39543,82.93144 -155.18989,20.4769 42.39724,127.98061 -64.79579,147.43366 171.98881,3.07155 37.59754,113.64679 z"
       id="path3406"
       inkscape:connector-curvature="0" />
    <text
       xml:space="preserve"
       style="font-size:12.669981px;font-style:normal;font-weight:normal;line-height:125%;letter-spacing:0px;word-spacing:0px;fill:#000000;fill-opacity:1;stroke:none;font-family:Bitstream Vera Sans"
       x="1005.7365"
       y="676.25006"
       id="text3427"
       sodipodi:linespacing="125%"
       transform="scale(0.88392164,1.131322)"><tspan
         sodipodi:role="line"
         id="tspan3429"
         x="1005.7365"
         y="676.25006">2,30</tspan></text>
    <text
       xml:space="preserve"
       style="font-size:12.66998196px;font-style:normal;font-weight:normal;line-height:125%;letter-spacing:0px;word-spacing:0px;fill:#000000;fill-opacity:1;stroke:none;font-family:Bitstream Vera Sans"
       x="466.44391"
       y="991.52753"
       id="text3431"
       sodipodi:linespacing="125%"
       transform="matrix(0.83334586,-0.37719214,0.2947068,1.0665907,0,0)"><tspan
         sodipodi:role="line"
         id="tspan3433"
         x="466.44391"
         y="991.52753">2,60</tspan></text>
    <text
       xml:space="preserve"
       style="font-size:12.669981px;font-style:normal;font-weight:normal;line-height:125%;letter-spacing:0px;word-spacing:0px;fill:#000000;fill-opacity:1;stroke:none;font-family:Bitstream Vera Sans"
       x="437.1236"
       y="787.94574"
       id="text3435"
       sodipodi:linespacing="125%"
       transform="scale(0.88392164,1.131322)"><tspan
         sodipodi:role="line"
         id="tspan3437"
         x="437.1236"
         y="787.94574">2,120</tspan></text>
    <text
       xml:space="preserve"
       style="font-size:12.669981px;font-style:normal;font-weight:normal;line-height:125%;letter-spacing:0px;word-spacing:0px;fill:#000000;fill-opacity:1;stroke:none;font-family:Bitstream Vera Sans"
       x="190.11035"
       y="675.95782"
       id="text3439"
       sodipodi:linespacing="125%"
       transform="scale(0.88392164,1.131322)"><tspan
         sodipodi:role="line"
         id="tspan3441"
         x="190.11035"
         y="675.95782">2,150</tspan></text>
    <text
       xml:space="preserve"
       style="font-size:12.669981px;font-style:normal;font-weight:normal;line-height:125%;letter-spacing:0px;word-spacing:0px;fill:#000000;fill-opacity:1;stroke:none;font-family:Bitstream Vera Sans"
       x="176.67184"
       y="428.3046"
       id="text3443"
       sodipodi:linespacing="125%"
       transform="scale(0.88392164,1.131322)"><tspan
         sodipodi:role="line"
         id="tspan3445"
         x="176.67184"
         y="428.3046">2,210</tspan></text>
    <text
       xml:space="preserve"
       style="font-size:12.669981px;font-style:normal;font-weight:normal;line-height:125%;letter-spacing:0px;word-spacing:0px;fill:#000000;fill-opacity:1;stroke:none;font-family:Bitstream Vera Sans"
       x="471.67987"
       y="340.63416"
       id="text3447"
       sodipodi:linespacing="125%"
       transform="scale(0.88392164,1.131322)"><tspan
         sodipodi:role="line"
         id="tspan3449"
         x="471.67987"
         y="340.63416">2,240</tspan></text>
    <text
       xml:space="preserve"
       style="font-size:12.669981px;font-style:normal;font-weight:normal;line-height:125%;letter-spacing:0px;word-spacing:0px;fill:#000000;fill-opacity:1;stroke:none;font-family:Bitstream Vera Sans"
       x="705.08026"
       y="377.01562"
       id="text3451"
       sodipodi:linespacing="125%"
       transform="matrix(0.88301235,-0.05130185,0.04008302,1.1301582,0,0)"><tspan
         sodipodi:role="line"
         id="tspan3453"
         x="705.08026"
         y="377.01562">2,300</tspan></text>
    <text
       xml:space="preserve"
       style="font-size:12.669981px;font-style:normal;font-weight:normal;line-height:125%;letter-spacing:0px;word-spacing:0px;fill:#000000;fill-opacity:1;stroke:none;font-family:Bitstream Vera Sans"
       x="989.38379"
       y="455.18173"
       id="text3455"
       sodipodi:linespacing="125%"
       transform="scale(0.88392164,1.131322)"><tspan
         sodipodi:role="line"
         id="tspan3457"
         x="989.38379"
         y="455.18173">2,330</tspan></text>
    <a
       transform="matrix(1.119927,0,0,1.4333829,411.27155,66.407894)"
       id="a3068-2-6-333">
      <path
         transform="translate(-1.5152321,207.25244)"
         d="m 531.34024,294.5766 c 0,2.78946 -2.03517,5.05076 -4.54568,5.05076 -2.51052,0 -4.54569,-2.2613 -4.54569,-5.05076 0,-2.78946 2.03517,-5.05076 4.54569,-5.05076 2.51051,0 4.54568,2.2613 4.54568,5.05076 z"
         sodipodi:ry="5.0507627"
         sodipodi:rx="4.5456862"
         sodipodi:cy="294.5766"
         sodipodi:cx="526.79456"
         id="path3034-0-5-1-851"
         style="fill:#000000;stroke:#000000"
         sodipodi:type="arc" />
    </a>
    <a
       transform="matrix(1.119927,0,0,1.4333829,269.85941,221.33698)"
       id="a3068-2-6-87">
      <path
         transform="translate(-1.5152321,207.25244)"
         d="m 531.34024,294.5766 c 0,2.78946 -2.03517,5.05076 -4.54568,5.05076 -2.51052,0 -4.54569,-2.2613 -4.54569,-5.05076 0,-2.78946 2.03517,-5.05076 4.54569,-5.05076 2.51051,0 4.54568,2.2613 4.54568,5.05076 z"
         sodipodi:ry="5.0507627"
         sodipodi:rx="4.5456862"
         sodipodi:cy="294.5766"
         sodipodi:cx="526.79456"
         id="path3034-0-5-1-63"
         style="fill:#000000;stroke:#000000"
         sodipodi:type="arc" />
    </a>
    <a
       transform="matrix(1.119927,0,0,1.4333829,71.882401,298.07757)"
       id="a3068-2-6-50">
      <path
         transform="translate(-1.5152321,207.25244)"
         d="m 531.34024,294.5766 c 0,2.78946 -2.03517,5.05076 -4.54568,5.05076 -2.51052,0 -4.54569,-2.2613 -4.54569,-5.05076 0,-2.78946 2.03517,-5.05076 4.54569,-5.05076 2.51051,0 4.54568,2.2613 4.54568,5.05076 z"
         sodipodi:ry="5.0507627"
         sodipodi:rx="4.5456862"
         sodipodi:cy="294.5766"
         sodipodi:cx="526.79456"
         id="path3034-0-5-1-80"
         style="fill:#000000;stroke:#000000"
         sodipodi:type="arc" />
    </a>
    <a
       transform="matrix(1.119927,0,0,1.4333829,-186.05335,305.31724)"
       id="a3068-2-6-41">
      <path
         transform="translate(-1.5152321,207.25244)"
         d="m 531.34024,294.5766 c 0,2.78946 -2.03517,5.05076 -4.54568,5.05076 -2.51052,0 -4.54569,-2.2613 -4.54569,-5.05076 0,-2.78946 2.03517,-5.05076 4.54569,-5.05076 2.51051,0 4.54568,2.2613 4.54568,5.05076 z"
         sodipodi:ry="5.0507627"
         sodipodi:rx="4.5456862"
         sodipodi:cy="294.5766"
         sodipodi:cx="526.79456"
         id="path3034-0-5-1-1"
         style="fill:#000000;stroke:#000000"
         sodipodi:type="arc" />
    </a>
    <a
       transform="matrix(1.119927,0,0,1.4333829,-411.18148,224.23285)"
       id="a3068-2-6-35">
      <path
         transform="translate(-1.5152321,207.25244)"
         d="m 531.34024,294.5766 c 0,2.78946 -2.03517,5.05076 -4.54568,5.05076 -2.51052,0 -4.54569,-2.2613 -4.54569,-5.05076 0,-2.78946 2.03517,-5.05076 4.54569,-5.05076 2.51051,0 4.54568,2.2613 4.54568,5.05076 z"
         sodipodi:ry="5.0507627"
         sodipodi:rx="4.5456862"
         sodipodi:cy="294.5766"
         sodipodi:cx="526.79456"
         id="path3034-0-5-1-93"
         style="fill:#000000;stroke:#000000"
         sodipodi:type="arc" />
    </a>
    <a
       transform="matrix(1.119927,0,0,1.4333829,-546.93715,85.23105)"
       id="a3068-2-6-415">
      <path
         transform="translate(-1.5152321,207.25244)"
         d="m 531.34024,294.5766 c 0,2.78946 -2.03517,5.05076 -4.54568,5.05076 -2.51052,0 -4.54569,-2.2613 -4.54569,-5.05076 0,-2.78946 2.03517,-5.05076 4.54569,-5.05076 2.51051,0 4.54568,2.2613 4.54568,5.05076 z"
         sodipodi:ry="5.0507627"
         sodipodi:rx="4.5456862"
         sodipodi:cy="294.5766"
         sodipodi:cx="526.79456"
         id="path3034-0-5-1-08"
         style="fill:#000000;stroke:#000000"
         sodipodi:type="arc" />
    </a>
    <a
       transform="matrix(1.119927,0,0,1.4333829,-508.47304,-210.14776)"
       id="a3068-2-6-356">
      <path
         transform="translate(-1.5152321,207.25244)"
         d="m 531.34024,294.5766 c 0,2.78946 -2.03517,5.05076 -4.54568,5.05076 -2.51052,0 -4.54569,-2.2613 -4.54569,-5.05076 0,-2.78946 2.03517,-5.05076 4.54569,-5.05076 2.51051,0 4.54568,2.2613 4.54568,5.05076 z"
         sodipodi:ry="5.0507627"
         sodipodi:rx="4.5456862"
         sodipodi:cy="294.5766"
         sodipodi:cx="526.79456"
         id="path3034-0-5-1-59"
         style="fill:#000000;stroke:#000000"
         sodipodi:type="arc" />
    </a>
    <a
       transform="matrix(1.119927,0,0,1.4333829,-329.72809,-333.22227)"
       id="a3068-2-6-90">
      <path
         transform="translate(-1.5152321,207.25244)"
         d="m 531.34024,294.5766 c 0,2.78946 -2.03517,5.05076 -4.54568,5.05076 -2.51052,0 -4.54569,-2.2613 -4.54569,-5.05076 0,-2.78946 2.03517,-5.05076 4.54569,-5.05076 2.51051,0 4.54568,2.2613 4.54568,5.05076 z"
         sodipodi:ry="5.0507627"
         sodipodi:rx="4.5456862"
         sodipodi:cy="294.5766"
         sodipodi:cx="526.79456"
         id="path3034-0-5-1-7"
         style="fill:#000000;stroke:#000000"
         sodipodi:type="arc" />
    </a>
    <a
       transform="matrix(1.119927,0,0,1.4333829,-154.37704,-376.66033)"
       id="a3068-2-6-63">
      <path
         transform="translate(-1.5152321,207.25244)"
         d="m 531.34024,294.5766 c 0,2.78946 -2.03517,5.05076 -4.54568,5.05076 -2.51052,0 -4.54569,-2.2613 -4.54569,-5.05076 0,-2.78946 2.03517,-5.05076 4.54569,-5.05076 2.51051,0 4.54568,2.2613 4.54568,5.05076 z"
         sodipodi:ry="5.0507627"
         sodipodi:rx="4.5456862"
         sodipodi:cy="294.5766"
         sodipodi:cx="526.79456"
         id="path3034-0-5-1-76"
         style="fill:#000000;stroke:#000000"
         sodipodi:type="arc" />
    </a>
    <a
       transform="matrix(1.119927,0,0,1.4333829,28.893115,-372.31653)"
       id="a3068-2-6-1">
      <path
         transform="translate(-1.5152321,207.25244)"
         d="m 531.34024,294.5766 c 0,2.78946 -2.03517,5.05076 -4.54568,5.05076 -2.51052,0 -4.54569,-2.2613 -4.54569,-5.05076 0,-2.78946 2.03517,-5.05076 4.54569,-5.05076 2.51051,0 4.54568,2.2613 4.54568,5.05076 z"
         sodipodi:ry="5.0507627"
         sodipodi:rx="4.5456862"
         sodipodi:cy="294.5766"
         sodipodi:cx="526.79456"
         id="path3034-0-5-1-50"
         style="fill:#000000;stroke:#000000"
         sodipodi:type="arc" />
    </a>
    <a
       transform="matrix(1.119927,0,0,1.4333829,192.93121,-330.32639)"
       id="a3068-2-6-65">
      <path
         transform="translate(-1.5152321,207.25244)"
         d="m 531.34024,294.5766 c 0,2.78946 -2.03517,5.05076 -4.54568,5.05076 -2.51052,0 -4.54569,-2.2613 -4.54569,-5.05076 0,-2.78946 2.03517,-5.05076 4.54569,-5.05076 2.51051,0 4.54568,2.2613 4.54568,5.05076 z"
         sodipodi:ry="5.0507627"
         sodipodi:rx="4.5456862"
         sodipodi:cy="294.5766"
         sodipodi:cx="526.79456"
         id="path3034-0-5-1-081"
         style="fill:#000000;stroke:#000000"
         sodipodi:type="arc" />
    </a>
    <a
       transform="matrix(1.119927,0,0,1.4333829,350.18151,-224.62711)"
       id="a3068-2-6-22">
      <path
         transform="translate(-1.5152321,207.25244)"
         d="m 531.34024,294.5766 c 0,2.78946 -2.03517,5.05076 -4.54568,5.05076 -2.51052,0 -4.54569,-2.2613 -4.54569,-5.05076 0,-2.78946 2.03517,-5.05076 4.54569,-5.05076 2.51051,0 4.54568,2.2613 4.54568,5.05076 z"
         sodipodi:ry="5.0507627"
         sodipodi:rx="4.5456862"
         sodipodi:cy="294.5766"
         sodipodi:cx="526.79456"
         id="path3034-0-5-1-69"
         style="fill:#000000;stroke:#000000"
         sodipodi:type="arc" />
    </a>
    <a
       id="a3617"
       transform="matrix(1.0280635,0,0,1.0098878,-0.14206671,-3.1397194)">
      <path
         inkscape:connector-curvature="0"
         id="path3567"
         d="M 502.52174,901.57278 641.17412,1009.1047 647.77661,882.93392 833.74686,935.983 849.15268,761.06443 967.99756,781.13706 893.1693,630.59239 912.97678,487.21653 832.64644,502.98788 757.81818,385.41967 612.56331,394.02221 599.35832,345.27442 499.2205,385.41967 421.09099,339.53939 394.68101,391.1547 250.52656,383.98591 180.09996,495.81908 77.761296,507.28914 106.37211,642.06246 38.146334,798.34216 156.99123,766.79946 173.49746,938.85051 358.36729,884.36768 390.27935,1019.141 z"
         style="fill:none;stroke:#000000;stroke-width:1.24345326px;stroke-linecap:butt;stroke-linejoin:miter;stroke-opacity:1" />
    </a>
    <text
       xml:space="preserve"
       style="font-size:12.669981px;font-style:normal;font-weight:normal;line-height:125%;letter-spacing:0px;word-spacing:0px;fill:#000000;fill-opacity:1;stroke:none;font-family:Bitstream Vera Sans"
       x="1144.8868"
       y="691.95605"
       id="text3569"
       sodipodi:linespacing="125%"
       transform="scale(0.88392164,1.131322)"><tspan
         sodipodi:role="line"
         id="tspan3571"
         x="1144.8868"
         y="691.95605">3,22</tspan></text>
    <text
       xml:space="preserve"
       style="font-size:12.66998196px;font-style:normal;font-weight:normal;line-height:125%;letter-spacing:0px;word-spacing:0px;fill:#000000;fill-opacity:1;stroke:none;font-family:Bitstream Vera Sans"
       x="624.15582"
       y="1113.671"
       id="text3573"
       sodipodi:linespacing="125%"
       transform="matrix(0.8265707,-0.40086972,0.31320651,1.0579192,0,0)"><tspan
         sodipodi:role="line"
         id="tspan3575"
         x="624.15582"
         y="1113.671">3,44</tspan></text>
    <text
       xml:space="preserve"
       style="font-size:12.66998196px;font-style:normal;font-weight:normal;line-height:125%;letter-spacing:0px;word-spacing:0px;fill:#000000;fill-opacity:1;stroke:none;font-family:Bitstream Vera Sans"
       x="482.35834"
       y="1065.4611"
       id="text3577"
       sodipodi:linespacing="125%"
       transform="matrix(0.85017993,-0.30959432,0.24189145,1.0881365,0,0)"
       inkscape:transform-center-y="9.2194433"
       inkscape:transform-center-x="2.1877008e-05"><tspan
         sodipodi:role="line"
         id="tspan3579"
         x="482.35834"
         y="1065.4611">3,66</tspan></text>
    <text
       xml:space="preserve"
       style="font-size:12.669981px;font-style:normal;font-weight:normal;line-height:125%;letter-spacing:0px;word-spacing:0px;fill:#000000;fill-opacity:1;stroke:none;font-family:Bitstream Vera Sans"
       x="474.23959"
       y="899.93359"
       id="text3581"
       sodipodi:linespacing="125%"
       transform="scale(0.88392164,1.131322)"><tspan
         sodipodi:role="line"
         id="tspan3583"
         x="474.23959"
         y="899.93359">3,112</tspan></text>
    <text
       xml:space="preserve"
       style="font-size:12.669981px;font-style:normal;font-weight:normal;line-height:125%;letter-spacing:0px;word-spacing:0px;fill:#000000;fill-opacity:1;stroke:none;font-family:Bitstream Vera Sans"
       x="225.30656"
       y="840.41998"
       id="text3585"
       sodipodi:linespacing="125%"
       transform="scale(0.88392164,1.131322)"><tspan
         sodipodi:role="line"
         id="tspan3587"
         x="225.30656"
         y="840.41998">3,134</tspan></text>
    <text
       xml:space="preserve"
       style="font-size:12.669981px;font-style:normal;font-weight:normal;line-height:125%;letter-spacing:0px;word-spacing:0px;fill:#000000;fill-opacity:1;stroke:none;font-family:Bitstream Vera Sans"
       x="58.924568"
       y="721.39282"
       id="text3589"
       sodipodi:linespacing="125%"
       transform="scale(0.88392164,1.131322)"><tspan
         sodipodi:role="line"
         id="tspan3591"
         x="58.924568"
         y="721.39282">3,156</tspan></text>
    <text
       xml:space="preserve"
       style="font-size:12.669981px;font-style:normal;font-weight:normal;line-height:125%;letter-spacing:0px;word-spacing:0px;fill:#000000;fill-opacity:1;stroke:none;font-family:Bitstream Vera Sans"
       x="56.364841"
       y="439.82343"
       id="text3593"
       sodipodi:linespacing="125%"
       transform="scale(0.88392164,1.131322)"><tspan
         sodipodi:role="line"
         id="tspan3595"
         x="56.364841"
         y="439.82343">3,202</tspan></text>
    <text
       xml:space="preserve"
       style="font-size:12.669981px;font-style:normal;font-weight:normal;line-height:125%;letter-spacing:0px;word-spacing:0px;fill:#000000;fill-opacity:1;stroke:none;font-family:Bitstream Vera Sans"
       x="256.02322"
       y="332.95499"
       id="text3597"
       sodipodi:linespacing="125%"
       transform="scale(0.88392164,1.131322)"><tspan
         sodipodi:role="line"
         id="tspan3599"
         x="256.02322"
         y="332.95499">3,224</tspan></text>
    <text
       xml:space="preserve"
       style="font-size:12.669981px;font-style:normal;font-weight:normal;line-height:125%;letter-spacing:0px;word-spacing:0px;fill:#000000;fill-opacity:1;stroke:none;font-family:Bitstream Vera Sans"
       x="457.60141"
       y="291.3595"
       id="text3601"
       sodipodi:linespacing="125%"
       transform="scale(0.88392164,1.131322)"><tspan
         sodipodi:role="line"
         id="tspan3603"
         x="457.60141"
         y="291.3595">3,246</tspan></text>
    <text
       xml:space="preserve"
       style="font-size:12.669981px;font-style:normal;font-weight:normal;line-height:125%;letter-spacing:0px;word-spacing:0px;fill:#000000;fill-opacity:1;stroke:none;font-family:Bitstream Vera Sans"
       x="705.25458"
       y="299.67862"
       id="text3605"
       sodipodi:linespacing="125%"
       transform="scale(0.88392164,1.131322)"><tspan
         sodipodi:role="line"
         id="tspan3607"
         x="705.25458"
         y="299.67862">3,292</tspan></text>
    <text
       xml:space="preserve"
       style="font-size:12.669981px;font-style:normal;font-weight:normal;line-height:125%;letter-spacing:0px;word-spacing:0px;fill:#000000;fill-opacity:1;stroke:none;font-family:Bitstream Vera Sans"
       x="895.95392"
       y="342.55392"
       id="text3609"
       sodipodi:linespacing="125%"
       transform="scale(0.88392164,1.131322)"><tspan
         sodipodi:role="line"
         id="tspan3611"
         x="895.95392"
         y="342.55392">3,314</tspan></text>
    <text
       xml:space="preserve"
       style="font-size:12.669981px;font-style:normal;font-weight:normal;line-height:125%;letter-spacing:0px;word-spacing:0px;fill:#000000;fill-opacity:1;stroke:none;font-family:Bitstream Vera Sans"
       x="1071.2949"
       y="435.98386"
       id="text3613"
       sodipodi:linespacing="125%"
       transform="scale(0.88392164,1.131322)"><tspan
         sodipodi:role="line"
         id="tspan3615"
         x="1071.2949"
         y="435.98386">3,336</tspan></text>
  </g>
</svg>
